<svg width="92" height="35" viewBox="0 0 92 35" fill="none" xmlns="http://www.w3.org/2000/svg">
<path d="M14.2431 0L0 9.35678V13.4114L14.2431 4.31451L28.3302 13.4114V9.35678L14.2431 0Z" fill="white"/>
<path d="M0 17.1021L14.2431 7.64137L28.3302 17.1021V21.1567L14.2431 11.592L3.53478 18.9215V30.4095H28.3302V34.0483H0V17.1021Z" fill="white"/>
<path d="M33.6899 21.2481V19.5713C34.0647 19.6181 34.3358 19.5646 34.5032 19.4106C34.6772 19.25 34.7642 18.922 34.7642 18.4266V14.2195H39.7646V21.2481H37.9672V15.9566H36.5615V18.507C36.5615 19.0826 36.4779 19.5713 36.3105 19.9729C36.1499 20.3679 35.9256 20.659 35.6378 20.8465C35.3566 21.0339 35.0554 21.1577 34.7341 21.218C34.4128 21.2782 34.0647 21.2883 33.6899 21.2481ZM44.7452 21.2481V17.7137L42.2651 21.2481H40.8694V14.2195H42.6667V17.7539L45.1468 14.2195H46.5325V21.2481H44.7452ZM51.8019 14.2195V15.9566H49.4423V21.2481H47.645V14.2195H51.8019ZM55.8939 21.2481L55.5927 20.234H53.2531L52.9519 21.2481H51.004L53.3234 14.2195H55.5123L57.8318 21.2481H55.8939ZM53.715 18.6877H55.1308L54.4179 16.298L53.715 18.6877ZM61.8772 21.3686C60.8129 21.3686 59.9326 21.0172 59.2365 20.3143C58.5403 19.6115 58.1922 18.7513 58.1922 17.7338C58.1922 16.7163 58.5403 15.8562 59.2365 15.1533C59.9326 14.4505 60.8129 14.099 61.8772 14.099C62.5265 14.099 63.1223 14.2563 63.6645 14.571C64.2067 14.8789 64.625 15.2972 64.9196 15.8261L64.297 16.1875C64.0761 15.7591 63.7481 15.4177 63.313 15.1634C62.8779 14.909 62.3993 14.7818 61.8772 14.7818C61.0003 14.7818 60.284 15.0663 59.7285 15.6353C59.1729 16.2043 58.8951 16.9038 58.8951 17.7338C58.8951 18.5639 59.1729 19.2634 59.7285 19.8324C60.284 20.4013 61.0003 20.6858 61.8772 20.6858C62.3993 20.6858 62.8779 20.5586 63.313 20.3043C63.7481 20.0499 64.0761 19.7085 64.297 19.2801L64.9196 19.6315C64.6317 20.1604 64.2134 20.5821 63.6645 20.8967C63.1223 21.2113 62.5265 21.3686 61.8772 21.3686ZM70.3953 14.2195V14.8822H68.2366V21.2481H67.5337V14.8822H65.3749V14.2195H70.3953ZM73.91 14.2195C74.5392 14.2195 75.0647 14.4304 75.4864 14.8521C75.9081 15.2738 76.119 15.7993 76.119 16.4285C76.119 17.0577 75.9081 17.5832 75.4864 18.0049C75.0647 18.4266 74.5392 18.6375 73.91 18.6375H72.1027V21.2481H71.3998V14.2195H73.91ZM73.91 17.9748C74.3451 17.9748 74.7032 17.8309 74.9844 17.543C75.2722 17.2485 75.4161 16.877 75.4161 16.4285C75.4161 15.98 75.2722 15.6119 74.9844 15.324C74.7032 15.0295 74.3451 14.8822 73.91 14.8822H72.1027V17.9748H73.91ZM83.0869 20.3143C82.3841 21.0172 81.5239 21.3686 80.5065 21.3686C79.489 21.3686 78.6288 21.0172 77.926 20.3143C77.2231 19.6048 76.8717 18.7446 76.8717 17.7338C76.8717 16.723 77.2231 15.8662 77.926 15.1634C78.6288 14.4538 79.489 14.099 80.5065 14.099C81.5239 14.099 82.3841 14.4538 83.0869 15.1634C83.7898 15.8662 84.1412 16.723 84.1412 17.7338C84.1412 18.7446 83.7898 19.6048 83.0869 20.3143ZM78.418 19.8324C78.9802 20.4013 79.6764 20.6858 80.5065 20.6858C81.3365 20.6858 82.0327 20.4013 82.5949 19.8324C83.1572 19.2567 83.4384 18.5572 83.4384 17.7338C83.4384 16.9105 83.1572 16.2143 82.5949 15.6453C82.0327 15.0697 81.3365 14.7818 80.5065 14.7818C79.6764 14.7818 78.9802 15.0697 78.418 15.6453C77.8557 16.2143 77.5745 16.9105 77.5745 17.7338C77.5745 18.5572 77.8557 19.2567 78.418 19.8324ZM86.6485 13.4163V12.8339H89.2592V13.4163H86.6485ZM89.8616 21.2481V15.5248L85.9457 21.2481H85.3432V14.2195H86.0461V19.9428L89.962 14.2195H90.5645V21.2481H89.8616Z" fill="white"/>
<path d="M35.3587 27.7803C34.9313 27.7803 34.5757 27.6385 34.2921 27.3548C34.0084 27.0674 33.8666 26.7137 33.8666 26.2939C33.8666 25.8741 34.0084 25.5223 34.2921 25.2387C34.5757 24.9512 34.9313 24.8075 35.3587 24.8075C35.6385 24.8075 35.8901 24.8756 36.1132 25.0117C36.3364 25.1441 36.499 25.3238 36.6011 25.5507L36.2947 25.7266C36.2191 25.5564 36.0962 25.4221 35.926 25.3238C35.7596 25.2216 35.5705 25.1706 35.3587 25.1706C35.0447 25.1706 34.78 25.2803 34.5644 25.4996C34.3488 25.7152 34.241 25.98 34.241 26.2939C34.241 26.6078 34.3488 26.8745 34.5644 27.0938C34.78 27.3094 35.0447 27.4172 35.3587 27.4172C35.5705 27.4172 35.7596 27.368 35.926 27.2697C36.0924 27.1676 36.2229 27.0314 36.3174 26.8612L36.6295 27.0428C36.5122 27.2697 36.3401 27.4494 36.1132 27.5817C35.8863 27.7141 35.6348 27.7803 35.3587 27.7803ZM39.154 24.8756V25.2387H38.1499V27.7122H37.7754V25.2387H36.7713V24.8756H39.154ZM41.1308 24.8075C41.5355 24.8075 41.8797 24.9512 42.1633 25.2387C42.4508 25.5261 42.5945 25.8779 42.5945 26.2939C42.5945 26.7099 42.4508 27.0617 42.1633 27.3491C41.8797 27.6366 41.5355 27.7803 41.1308 27.7803C40.6278 27.7803 40.2458 27.5723 39.9848 27.1562V28.8469H39.6103V24.8756H39.9848V25.4316C40.2458 25.0155 40.6278 24.8075 41.1308 24.8075ZM40.3082 27.0938C40.5237 27.3094 40.7885 27.4172 41.1024 27.4172C41.4163 27.4172 41.6811 27.3094 41.8967 27.0938C42.1123 26.8745 42.2201 26.6078 42.2201 26.2939C42.2201 25.98 42.1123 25.7152 41.8967 25.4996C41.6811 25.2803 41.4163 25.1706 41.1024 25.1706C40.7885 25.1706 40.5237 25.2803 40.3082 25.4996C40.0926 25.7152 39.9848 25.98 39.9848 26.2939C39.9848 26.6078 40.0926 26.8745 40.3082 27.0938ZM45.5942 27.3548C45.3068 27.6385 44.955 27.7803 44.539 27.7803C44.1229 27.7803 43.7693 27.6385 43.4781 27.3548C43.1906 27.0674 43.0469 26.7137 43.0469 26.2939C43.0469 25.8741 43.1906 25.5223 43.4781 25.2387C43.7693 24.9512 44.1229 24.8075 44.539 24.8075C44.955 24.8075 45.3068 24.9512 45.5942 25.2387C45.8854 25.5223 46.031 25.8741 46.031 26.2939C46.031 26.7137 45.8854 27.0674 45.5942 27.3548ZM43.7447 27.0938C43.9603 27.3094 44.225 27.4172 44.539 27.4172C44.8529 27.4172 45.1176 27.3094 45.3332 27.0938C45.5488 26.8745 45.6566 26.6078 45.6566 26.2939C45.6566 25.98 45.5488 25.7152 45.3332 25.4996C45.1176 25.2803 44.8529 25.1706 44.539 25.1706C44.225 25.1706 43.9603 25.2803 43.7447 25.4996C43.5291 25.7152 43.4213 25.98 43.4213 26.2939C43.4213 26.6078 43.5291 26.8745 43.7447 27.0938ZM48.7227 24.8756H49.0404V27.7122H48.666V25.528L46.9753 27.7122H46.6576V24.8756H47.0321V27.0598L48.7227 24.8756ZM51.8746 24.8756V25.2387H50.8705V27.7122H50.496V25.2387H49.4918V24.8756H51.8746ZM53.5306 24.8075C53.9505 24.8075 54.289 24.9569 54.5462 25.2557C54.8071 25.5507 54.9376 25.9005 54.9376 26.3052C54.9376 26.3468 54.9338 26.4055 54.9263 26.4811H52.4357C52.4735 26.7686 52.5946 26.9974 52.7988 27.1676C53.0068 27.334 53.2621 27.4172 53.5647 27.4172C53.7803 27.4172 53.9656 27.3737 54.1207 27.2867C54.2795 27.1959 54.3987 27.0787 54.4781 26.935L54.8071 27.1279C54.6823 27.3283 54.5121 27.4872 54.2965 27.6044C54.081 27.7217 53.8351 27.7803 53.559 27.7803C53.1127 27.7803 52.7496 27.6404 52.4697 27.3605C52.1899 27.0806 52.0499 26.7251 52.0499 26.2939C52.0499 25.8703 52.188 25.5167 52.4641 25.233C52.7402 24.9493 53.0957 24.8075 53.5306 24.8075ZM53.5306 25.1706C53.2356 25.1706 52.9879 25.2595 52.7874 25.4372C52.5908 25.6112 52.4735 25.8381 52.4357 26.118H54.5518C54.514 25.8192 54.3987 25.5866 54.2058 25.4202C54.0129 25.2538 53.7878 25.1706 53.5306 25.1706ZM57.7485 24.8756V27.7122H57.374V25.2387H56.0919V26.5038C56.0919 26.9766 56.0011 27.3019 55.8196 27.4796C55.6418 27.6574 55.396 27.7349 55.082 27.7122V27.3605C55.2976 27.3832 55.4565 27.3321 55.5586 27.2073C55.6645 27.0825 55.7174 26.848 55.7174 26.5038V24.8756H57.7485ZM59.6933 25.9535C59.9581 25.9535 60.1812 26.0367 60.3628 26.2031C60.5481 26.3658 60.6407 26.5757 60.6407 26.8329C60.6407 27.09 60.5481 27.3019 60.3628 27.4683C60.1812 27.6309 59.9581 27.7122 59.6933 27.7122H58.5416V24.8756H58.9161V25.9535H59.6933ZM59.6933 27.3491C59.8522 27.3491 59.9864 27.3019 60.0961 27.2073C60.2096 27.1127 60.2663 26.9879 60.2663 26.8329C60.2663 26.6778 60.2096 26.553 60.0961 26.4584C59.9864 26.3639 59.8522 26.3166 59.6933 26.3166H58.9161V27.3491H59.6933ZM63.2149 24.8756H63.5893V27.7122H63.2149V26.4754H61.581V27.7122H61.2065V24.8756H61.581V26.1124H63.2149V24.8756ZM66.8206 24.8756H67.1951V27.7122H66.8206V27.1562C66.5597 27.5723 66.1777 27.7803 65.6746 27.7803C65.2699 27.7803 64.9239 27.6366 64.6364 27.3491C64.3528 27.0617 64.2109 26.7099 64.2109 26.2939C64.2109 25.8779 64.3528 25.5261 64.6364 25.2387C64.9239 24.9512 65.2699 24.8075 65.6746 24.8075C66.1777 24.8075 66.5597 25.0155 66.8206 25.4316V24.8756ZM64.9087 27.0938C65.1243 27.3094 65.3891 27.4172 65.703 27.4172C66.0169 27.4172 66.2817 27.3094 66.4973 27.0938C66.7129 26.8745 66.8206 26.6078 66.8206 26.2939C66.8206 25.98 66.7129 25.7152 66.4973 25.4996C66.2817 25.2803 66.0169 25.1706 65.703 25.1706C65.3891 25.1706 65.1243 25.2803 64.9087 25.4996C64.6932 25.7152 64.5854 25.98 64.5854 26.2939C64.5854 26.6078 64.6932 26.8745 64.9087 27.0938ZM70.0303 24.8756V27.7122H69.6558V26.6229H69.1679L68.2942 27.7122H67.8177L68.7141 26.6116C68.4871 26.5776 68.2999 26.483 68.1524 26.3279C68.0049 26.1729 67.9311 25.9819 67.9311 25.7549C67.9311 25.4977 68.0219 25.2878 68.2035 25.1252C68.3888 24.9588 68.6138 24.8756 68.8786 24.8756H70.0303ZM68.8786 26.2712H69.6558V25.2387H68.8786C68.7197 25.2387 68.5836 25.2859 68.4701 25.3805C68.3604 25.4751 68.3056 25.5999 68.3056 25.7549C68.3056 25.91 68.3604 26.0348 68.4701 26.1294C68.5836 26.2239 68.7197 26.2712 68.8786 26.2712ZM36.3288 32.7122H35.8295L34.4112 31.345V32.7122H34.0368V29.8756H34.4112V31.1294L35.7615 29.8756H36.2721L34.8083 31.2372L36.3288 32.7122ZM38.9347 32.3548C38.6473 32.6385 38.2955 32.7803 37.8795 32.7803C37.4635 32.7803 37.1098 32.6385 36.8186 32.3548C36.5312 32.0674 36.3874 31.7137 36.3874 31.2939C36.3874 30.8741 36.5312 30.5223 36.8186 30.2387C37.1098 29.9512 37.4635 29.8075 37.8795 29.8075C38.2955 29.8075 38.6473 29.9512 38.9347 30.2387C39.226 30.5223 39.3716 30.8741 39.3716 31.2939C39.3716 31.7137 39.226 32.0674 38.9347 32.3548ZM37.0852 32.0938C37.3008 32.3094 37.5656 32.4172 37.8795 32.4172C38.1934 32.4172 38.4582 32.3094 38.6738 32.0938C38.8893 31.8745 38.9971 31.6078 38.9971 31.2939C38.9971 30.98 38.8893 30.7152 38.6738 30.4996C38.4582 30.2803 38.1934 30.1706 37.8795 30.1706C37.5656 30.1706 37.3008 30.2803 37.0852 30.4996C36.8697 30.7152 36.7619 30.98 36.7619 31.2939C36.7619 31.6078 36.8697 31.8745 37.0852 32.0938ZM42.7781 29.8756V32.7122H42.4036V30.4486L41.4108 32.0598H41.3654L40.3726 30.4486V32.7122H39.9982V29.8756H40.4293L41.3881 31.4301L42.3469 29.8756H42.7781ZM45.9545 29.8756V32.7122H45.58V30.2387H43.9461V32.7122H43.5717V29.8756H45.9545ZM49.1858 29.8756H49.5602V32.7122H49.1858V32.1562C48.9248 32.5723 48.5428 32.7803 48.0398 32.7803C47.6351 32.7803 47.289 32.6366 47.0016 32.3491C46.7179 32.0617 46.5761 31.7099 46.5761 31.2939C46.5761 30.8779 46.7179 30.5261 47.0016 30.2387C47.289 29.9512 47.6351 29.8075 48.0398 29.8075C48.5428 29.8075 48.9248 30.0155 49.1858 30.4316V29.8756ZM47.2739 32.0938C47.4895 32.3094 47.7542 32.4172 48.0682 32.4172C48.3821 32.4172 48.6468 32.3094 48.8624 32.0938C49.078 31.8745 49.1858 31.6078 49.1858 31.2939C49.1858 30.98 49.078 30.7152 48.8624 30.4996C48.6468 30.2803 48.3821 30.1706 48.0682 30.1706C47.7542 30.1706 47.4895 30.2803 47.2739 30.4996C47.0583 30.7152 46.9505 30.98 46.9505 31.2939C46.9505 31.6078 47.0583 31.8745 47.2739 32.0938ZM52.3614 29.8756H52.7358V32.7122H52.3614V31.4754H50.7275V32.7122H50.353V29.8756H50.7275V31.1124H52.3614V29.8756ZM55.5927 29.8756H55.9104V32.7122H55.536V30.528L53.8453 32.7122H53.5276V29.8756H53.9021V32.0598L55.5927 29.8756ZM58.7446 29.8756V32.7122H58.3702V31.6229H57.8823L57.0086 32.7122H56.532L57.4284 31.6116C57.2015 31.5776 57.0143 31.483 56.8668 31.3279C56.7193 31.1729 56.6455 30.9819 56.6455 30.7549C56.6455 30.4977 56.7363 30.2878 56.9178 30.1252C57.1032 29.9588 57.3282 29.8756 57.5929 29.8756H58.7446ZM57.5929 31.2712H58.3702V30.2387H57.5929C57.4341 30.2387 57.2979 30.2859 57.1845 30.3805C57.0748 30.4751 57.0199 30.5999 57.0199 30.7549C57.0199 30.91 57.0748 31.0348 57.1845 31.1294C57.2979 31.2239 57.4341 31.2712 57.5929 31.2712Z" fill="white"/>
</svg>
